<?xml version="1.0" encoding="utf-8"?>
<!-- Generator: Adobe Illustrator 23.0.5, SVG Export Plug-In . SVG Version: 6.00 Build 0)  -->
<svg version="1.1" id="Layer_1" xmlns="http://www.w3.org/2000/svg" xmlns:xlink="http://www.w3.org/1999/xlink" x="0px" y="0px"
	 viewBox="0 0 300 300" style="enable-background:new 0 0 300 300;" xml:space="preserve">
<style type="text/css">
	.st0{fill:#177323;}
	.st1{fill:#237CC3;}
</style>
<g>
	<defs>
		<rect id="SVGID_1_" x="598" y="139" width="162.67" height="244"/>
	</defs>
	<clipPath id="SVGID_2_">
		<use xlink:href="#SVGID_1_"  style="overflow:visible;"/>
	</clipPath>
</g>
<path d="M694.66,234.41c-1.12-0.9-2.21-1.77-3.38-2.7c5.23-5.83,10.82-10.96,19.07-12.09c0.06,0.84,0.15,1.67,0.18,2.49
	c0.16,4.33,0.36,8.67,0.42,13c0.05,3.27-0.05,6.55-0.14,9.82c-0.05,1.9-0.14,3.81-0.3,5.71c-0.2,2.24-0.5,4.46-0.75,6.7
	c-0.43,3.86-1.21,7.66-2.23,11.4c-1.86,6.85-4.78,13.2-9.06,18.9c-2.99,3.98-6.5,7.42-10.55,10.32c-2.69,1.92-5.54,3.57-8.64,4.88
	c-0.61-1.31-1.21-2.59-1.79-3.88c-2.81-6.23-6.26-12.07-10.5-17.43c-2.8-3.55-5.91-6.82-9.45-9.64c-2.18-1.74-4.48-3.32-6.73-4.97
	c-0.21-0.15-0.45-0.25-0.79-0.44c0.72-0.24,1.34-0.44,1.96-0.64c6.92-2.32,13.68-5.02,19.98-8.73c5.44-3.2,10.43-6.98,14.77-11.59
	c2.97-3.16,5.58-6.6,7.61-10.46C694.46,234.85,694.55,234.63,694.66,234.41z"/>
<path d="M611.9,259.59c1.14,0,2.21-0.06,3.26,0.01c2.5,0.18,5.01,0.33,7.49,0.65c3.51,0.45,6.95,1.26,10.31,2.36
	c7.59,2.49,14.45,6.32,20.59,11.42c5.39,4.48,9.87,9.75,13.65,15.64c2.95,4.59,5.38,9.42,7.31,14.51c0.04,0.1,0.07,0.2,0.14,0.43
	c-0.8,0.2-1.58,0.39-2.36,0.59c-4.26,1.12-8.61,1.44-12.99,1.21c-6.86-0.36-13.29-2.31-19.35-5.53c-5.92-3.15-11.23-7.1-15.78-12.01
	c-4.67-5.04-8.41-10.68-10.57-17.27c-0.73-2.24-1.21-4.54-1.39-6.89c-0.11-1.45-0.22-2.89-0.32-4.34
	C611.88,260.13,611.9,259.88,611.9,259.59z"/>
<path d="M665.48,255.97c0-4.39,0-8.66,0-12.93c0-13.88,0-27.77,0-41.65c0-1.03,0.28-1.31,1.3-1.31c4.69,0,9.37,0,14.06,0
	c0.88,0,1.18,0.29,1.18,1.16c0,14.1,0,28.2,0.01,42.3c0,0.58-0.3,0.94-0.68,1.26c-2.41,2-4.75,4.12-7.29,5.94
	c-2.52,1.8-5.27,3.3-7.92,4.92C665.96,255.77,665.76,255.84,665.48,255.97z"/>
<path d="M641.27,241.44c0-6.51,0-13.01,0-19.52c0-1.06,0.2-1.27,1.23-1.27c4.66,0,9.33,0,13.99,0c0.89,0,1.18,0.28,1.18,1.14
	c0,12.26,0,24.51,0.02,36.77c0,0.7-0.26,1.05-0.9,1.3c-3.66,1.41-7.39,2.57-11.21,3.45c-0.33,0.08-0.75,0.03-1.07-0.09
	c-0.88-0.34-1.73-0.78-2.61-1.14c-0.5-0.2-0.64-0.53-0.64-1.05C641.28,254.5,641.28,247.97,641.27,241.44
	C641.27,241.44,641.27,241.44,641.27,241.44z"/>
<path d="M634.9,259.3c-2.44-0.63-4.81-1.36-7.23-1.84c-2.22-0.44-4.49-0.6-6.74-0.88c-0.52-0.06-1.04-0.07-1.55-0.14
	c-0.62-0.08-0.78-0.5-0.78-1.07c0.01-2.43,0.01-4.86,0.01-7.29c0-3.1,0-6.21,0-9.31c0-0.93,0.26-1.21,1.19-1.21
	c4.67-0.01,9.33,0,14,0c0.78,0,1.1,0.29,1.1,1.04c0.01,6.88,0.01,13.76,0.02,20.63C634.91,259.29,634.89,259.33,634.9,259.3z"/>
<path class="st0" d="M159.65,224.05c-1.31,0.37-2.57,0.71-3.86,0.9c-3.33,0.5-6.68,0.75-10.03,1.15c-0.76,0.09-1.08-0.22-1.32-0.92
	c-2.46-7.03-5.88-13.58-10.14-19.68c-3.57-5.11-7.68-9.72-12.3-13.88c-5.41-4.87-11.25-9.09-17.77-12.36
	c-6.47-3.25-13.25-5.68-20.39-6.94c-3.56-0.62-7.14-1.04-10.87-1.57c-0.84-3.78-0.99-7.75-0.92-11.78c1.42,0,2.78-0.06,4.12,0.01
	c2.57,0.13,5.14,0.22,7.69,0.53c3.24,0.4,6.47,0.89,9.68,1.54c11.44,2.34,21.79,7.17,31.33,13.86c5.89,4.12,11.21,8.88,16.03,14.21
	c6.84,7.54,12.48,15.89,16.85,25.06c0.32,0.68,0.63,1.35,0.93,2.03c5.2-3.08,14.46-8.69,17.51-11.34c3.3-2.87,6.36-6,9.1-9.42
	c3.98-4.99,7.23-10.4,9.61-16.31c2.13-5.3,3.72-10.76,4.67-16.4c0.51-3.14,0.96-6.29,1.31-9.44c0.84-7.77,0.96-15.59,0.94-23.39
	c0-0.12-0.01-0.23-0.02-0.38c-0.98,1.63-1.86,3.28-2.92,4.81c-2.87,4.18-6.22,7.96-9.93,11.4c-5.65,5.22-11.72,9.91-18.33,13.86
	c-9.9,5.9-20.42,10.4-31.46,13.66c-1.39,0.41-2.75,0.91-4.15,1.29c-0.29,0.08-0.74-0.13-1.02-0.35c-1.76-1.41-3.5-2.85-5.25-4.28
	c-0.4-0.33-0.82-0.64-1.4-1.1c2.28-0.8,4.39-1.5,6.45-2.27c10.28-3.87,20.23-8.38,29.42-14.49c10.66-7.09,19.44-15.96,25.65-27.24
	c1.23-2.24,1.27-1.49-0.59-3.27c-0.89-0.85-1.78-1.7-2.77-2.64c1.75-1.84,3.4-3.64,5.13-5.37c3.74-3.71,7.83-6.92,12.67-9.1
	c2.59-1.18,5.3-2,8.1-2.46c0.3-0.06,0.61-0.01,1.01-0.01c0.11,2.11,0.29,4.2,0.34,6.3c0.21,8.13,0.49,16.24,0.54,24.37
	c0.03,4.4-0.21,8.81-0.54,13.19c-0.5,6.41-1.32,12.76-2.51,19.08c-2.04,10.86-5.8,21.02-11.92,30.23
	c-6.64,10.01-15.14,18.02-25.82,23.63c-1.05,0.54-7.43,3.15-10.83,4.59"/>
<path class="st1" d="M148.14,154.77c0-1.43,0-2.73,0-4.02c0.01-21.97,0.02-43.94,0.03-65.91c0-2.67,0-5.34,0.02-8.01
	c0.01-1.27,0.61-1.9,1.88-1.9c6.61-0.01,13.22,0,19.83,0.02c1.52,0,2.11,0.7,2.11,2.41c0.01,12.44,0,24.89,0.01,37.33
	c0,7.26-0.01,14.52,0.03,21.78c0.01,0.95-0.27,1.62-0.94,2.27c-5.05,4.94-10.64,9.16-16.71,12.76c-1.67,0.99-3.39,1.91-5.09,2.85
	C148.99,154.52,148.62,154.6,148.14,154.77z"/>
<path class="st0" d="M196.81,143.42c-0.11,1.97-0.13,3.7-0.31,5.41c-0.42,4.02-0.78,8.06-1.41,12.05
	c-1.32,8.35-3.9,16.28-8.24,23.59c-3.49,5.88-7.78,11.09-12.91,15.61c-3.14,2.77-6.55,5.17-10.21,7.2
	c-0.43,0.24-0.85,0.49-1.31,0.76c-5.94-10.19-12.5-19.9-21.42-27.98c2.74-1.05,5.36-2.08,8-3.08c11.33-4.29,21.75-10.19,31.24-17.71
	c4.42-3.51,8.65-7.25,12.52-11.36C194.07,146.53,195.33,145.08,196.81,143.42z"/>
<path class="st1" d="M113.57,134.4c0-9.21,0-18.43,0-27.64c0-1.84,0.55-2.43,2.35-2.43c6.36-0.01,12.72-0.01,19.08,0
	c1.78,0,2.21,0.44,2.21,2.19c0.01,17.34,0,34.68,0.04,52.02c0,1.08-0.37,1.61-1.36,1.98c-5.37,2-10.8,3.8-16.43,4.96
	c-0.24,0.05-0.52,0.16-0.72,0.08c-1.55-0.6-3.11-1.2-4.61-1.91c-0.31-0.15-0.53-0.81-0.54-1.23c-0.04-4.59-0.02-9.18-0.02-13.77
	c0-4.75,0-9.49,0-14.24C113.56,134.4,113.57,134.4,113.57,134.4z"/>
<path class="st0" d="M74.64,177.61c3.93,0.64,7.71,1.09,11.41,1.89c9.79,2.13,18.44,6.73,26.41,12.67
	c4.86,3.62,9.31,7.73,13.24,12.34c5.51,6.45,10.04,13.53,13.12,21.49c0.12,0.31,0.25,0.62,0.44,1.12c-1.4-0.1-2.69-0.15-3.96-0.3
	c-5.42-0.62-10.67-1.95-15.72-4.02c-0.38-0.16-0.77-0.49-1-0.84c-4.1-6.41-8.63-12.48-14.31-17.6c-6.2-5.59-13.3-9.59-21.38-11.77
	c-0.88-0.24-1.42-0.66-1.9-1.4C78.43,187.2,75.61,181.28,74.64,177.61z"/>
<path class="st1" d="M104.84,159.73c-2.11-0.6-4.25-1.27-6.42-1.81c-4.83-1.2-9.73-2.02-14.72-2.19c-0.22-0.01-0.43-0.02-0.65-0.04
	c-1.5-0.18-1.86-0.59-1.84-2.09c0.03-2.36,0.07-4.71,0.08-7.07c0.02-5.21,0.02-10.42,0.03-15.63c0-2,0.51-2.51,2.54-2.51
	c6.08,0,12.16,0,18.24,0.01c1.99,0,2.49,0.53,2.51,2.55c0.08,8.09,0.16,16.19,0.23,24.28C104.86,156.74,104.84,158.25,104.84,159.73
	z"/>
<path class="st0" d="M85.68,197.52c9.97,4.5,17.73,11.14,23.46,20.13C100.2,212.38,92.21,206.01,85.68,197.52z"/>
<path class="st0" d="M186.74,105.08c0.49-0.91,0.96-1.83,1.47-2.72c1.96-3.44,3.35-7.13,4.05-11c0.6-3.29,0.76-6.66,1-10
	c0.3-4.23-0.21-8.43-0.72-12.63c-0.57-4.71-2.49-8.87-5.12-12.73c-3.15-4.63-7.01-8.61-11.31-12.18c-0.13-0.1-0.27-0.19-0.48-0.23
	c6.71,7.5,11.81,15.96,15.43,25.53c-0.38-0.2-0.61-0.34-0.85-0.46c-3.33-1.65-6.69-3.26-10-4.96c-5.3-2.72-9.94-6.25-13.37-11.21
	c-3.6-5.2-5.44-11.02-5.91-17.27c-0.21-2.77-0.15-5.56-0.22-8.55c1.79,0.3,3.36,0.45,4.86,0.83c5.59,1.44,10.69,3.91,15.17,7.58
	c6.83,5.59,10.79,12.87,12.13,21.53c0.76,4.9,1.16,9.87,1.67,14.81c0.27,2.6,0.42,5.22,0.71,7.82c0.05,0.48,0.5,0.91,0.77,1.37
	c0.47-0.32,1.16-0.53,1.36-0.97c1.08-2.34,2.11-4.71,3.01-7.12c1.89-5.06,3.69-10.16,6.76-14.65c4.36-6.37,10.36-10.48,17.8-12.52
	c4.4-1.21,8.85-1.41,13.35-0.76c1.03,0.15,2.03,0.43,3.18,0.67c-0.79,2.22-1.52,4.32-2.28,6.39c-2.15,5.81-5.18,11.08-9.46,15.61
	c-4.52,4.77-10.12,7.52-16.49,8.75c-3.51,0.68-7,1.35-10.13,3.21c-0.19,0.11-0.42,0.16-0.91,0.34c2.97-5.21,6.62-9.57,10.67-13.62
	c4.07-4.08,8.49-7.75,13.09-11.26c-0.77,0.42-1.55,0.82-2.3,1.26c-0.8,0.46-1.6,0.92-2.35,1.44c-5.51,3.76-10.67,7.92-14.81,13.22
	c-2.63,3.37-4.71,7.07-6.52,10.94c-2.66,5.68-5.11,11.47-8.46,16.8c-1.38,2.19-2.88,4.3-4.33,6.44c-0.1,0.15-0.23,0.27-0.34,0.41
	C186.82,105.13,186.78,105.11,186.74,105.08z"/>
<path class="st0" d="M25.52,275.03l-0.77-10.22H21.1l-0.77,10.22h-4.01l3.38-37.57h6.75l3.15,37.57H25.52z M23.49,246.39
	c-0.06-0.76-0.12-1.51-0.18-2.23c-0.06-0.73-0.12-1.47-0.18-2.23h-0.32c-0.06,0.76-0.12,1.51-0.18,2.23
	c-0.06,0.73-0.12,1.47-0.18,2.23l-1.17,14.1h3.29L23.49,246.39z"/>
<path class="st0" d="M42.76,275.03c-0.09-0.2-0.17-0.4-0.23-0.62c-0.06-0.21-0.11-0.52-0.16-0.92c-0.04-0.4-0.09-0.93-0.13-1.61
	c-0.04-0.68-0.1-1.58-0.16-2.7c-0.06-1.26-0.13-2.52-0.2-3.8c-0.08-1.27-0.19-2.54-0.34-3.8c-0.15-1.03-0.35-1.69-0.61-1.99
	c-0.26-0.3-0.68-0.45-1.28-0.45h-1.89v15.88H33.8v-37.57h7.2c1.05,0,1.86,0.14,2.43,0.42c0.57,0.28,1.07,0.72,1.49,1.32
	c0.27,0.4,0.5,0.84,0.7,1.32c0.2,0.48,0.35,1.05,0.47,1.71c0.12,0.66,0.2,1.43,0.25,2.31c0.04,0.88,0.07,1.89,0.07,3.05
	c0,1.19-0.02,2.19-0.04,3c-0.03,0.81-0.08,1.51-0.16,2.09c-0.08,0.58-0.16,1.07-0.25,1.46s-0.2,0.76-0.31,1.09
	c-0.21,0.56-0.46,0.99-0.74,1.29c-0.29,0.3-0.59,0.53-0.92,0.7v0.25c0.3,0.17,0.59,0.47,0.88,0.92c0.28,0.45,0.49,1.18,0.61,2.21
	c0.21,1.72,0.38,3.47,0.52,5.24c0.14,1.77,0.25,3.62,0.34,5.53c0.06,0.76,0.13,1.41,0.2,1.94c0.07,0.53,0.19,1.04,0.34,1.54v0.2
	H42.76z M39.57,255.13c0.54,0,0.99-0.08,1.35-0.25c0.36-0.17,0.66-0.53,0.9-1.09c0.12-0.26,0.21-0.53,0.27-0.79
	c0.06-0.26,0.11-0.62,0.16-1.07c0.04-0.45,0.07-1.01,0.09-1.69c0.01-0.68,0.02-1.56,0.02-2.66c0-0.83-0.01-1.51-0.02-2.06
	c-0.02-0.55-0.04-0.99-0.07-1.34c-0.03-0.35-0.08-0.63-0.16-0.84c-0.08-0.21-0.16-0.4-0.25-0.57c-0.36-0.63-0.89-0.94-1.58-0.94
	h-2.52v13.3H39.57z"/>
<path class="st0" d="M60.73,275.03c-0.81-2.81-1.5-5.2-2.07-7.17c-0.57-1.97-1.05-3.62-1.44-4.96c-0.39-1.34-0.7-2.41-0.92-3.2
	s-0.39-1.42-0.5-1.86c-0.11-0.45-0.18-0.76-0.23-0.94c-0.04-0.18-0.08-0.34-0.11-0.47h-0.32c0.03,0.4,0.05,0.81,0.05,1.24
	s0,1.11,0,2.03v15.34h-4.05v-37.57h4.05v13.1c0,0.86,0,1.52,0,1.99c0,0.46-0.02,0.86-0.05,1.19h0.32c0.03-0.16,0.1-0.4,0.2-0.72
	c0.1-0.31,0.32-1,0.65-2.06c0.33-1.06,0.83-2.64,1.51-4.74c0.68-2.1,1.63-5.02,2.86-8.76h4.14v0.25l-5.67,16.97l5.94,20.15v0.2
	H60.73z"/>
<path class="st0" d="M77.57,275.03l-0.77-10.22h-3.65l-0.77,10.22h-4.01l3.38-37.57h6.75l3.15,37.57H77.57z M75.54,246.39
	c-0.06-0.76-0.12-1.51-0.18-2.23c-0.06-0.73-0.12-1.47-0.18-2.23h-0.32c-0.06,0.76-0.12,1.51-0.18,2.23
	c-0.06,0.73-0.12,1.47-0.18,2.23l-1.17,14.1h3.29L75.54,246.39z"/>
<path class="st0" d="M93.74,237.46h4.1v18.22c0,2.85-0.02,5.21-0.07,7.1c-0.04,1.89-0.11,3.44-0.2,4.67
	c-0.09,1.22-0.21,2.21-0.36,2.95c-0.15,0.74-0.33,1.41-0.54,2.01c-0.21,0.56-0.44,1.05-0.7,1.46c-0.26,0.41-0.59,0.75-0.99,1.02
	c-0.41,0.26-0.9,0.46-1.49,0.6c-0.59,0.13-1.33,0.2-2.23,0.2c-1.74,0-3.02-0.34-3.83-1.02c-0.81-0.68-1.41-1.81-1.8-3.4
	c-0.09-0.43-0.17-0.86-0.25-1.29c-0.08-0.43-0.14-0.92-0.18-1.46c-0.04-0.55-0.08-1.18-0.09-1.91c-0.02-0.73-0.02-1.59-0.02-2.58
	c0-0.86,0.01-1.52,0.02-1.99c0.01-0.46,0.05-0.93,0.11-1.39h3.6c-0.03,0.27-0.05,0.61-0.05,1.04c0,0.43,0,1.21,0,2.33
	c0,1.06,0.05,2.11,0.14,3.15c0.09,1.04,0.23,1.86,0.41,2.46c0.15,0.46,0.34,0.81,0.56,1.04c0.23,0.23,0.65,0.35,1.28,0.35
	c0.69,0,1.16-0.12,1.4-0.37c0.24-0.25,0.43-0.65,0.59-1.22c0.09-0.4,0.17-0.88,0.25-1.44c0.07-0.56,0.13-1.34,0.18-2.33
	c0.04-0.99,0.08-2.27,0.11-3.85c0.03-1.57,0.04-3.58,0.04-6.03V237.46z"/>
<path class="st0" d="M111.21,275.03v-37.57h4.1v37.57H111.21z"/>
<path class="st0" d="M131.11,275.03c-0.99-3.64-1.85-6.77-2.57-9.38c-0.72-2.61-1.33-4.83-1.82-6.65c-0.5-1.82-0.89-3.31-1.19-4.47
	c-0.3-1.16-0.55-2.1-0.74-2.83c-0.2-0.73-0.35-1.3-0.45-1.71c-0.11-0.41-0.19-0.79-0.25-1.12h-0.23c0.03,1.06,0.05,2.17,0.05,3.33
	c0,1.16,0,2.43,0,3.82v19.01h-3.65v-37.57h4.59c0.66,2.78,1.23,5.15,1.71,7.12c0.48,1.97,0.88,3.62,1.19,4.96
	c0.32,1.34,0.57,2.42,0.77,3.23c0.2,0.81,0.34,1.46,0.45,1.94c0.1,0.48,0.18,0.84,0.23,1.09c0.04,0.25,0.08,0.47,0.11,0.67h0.23
	c-0.03-0.63-0.05-1.27-0.05-1.94c0-0.66,0-1.56,0-2.68v-14.39h3.69v37.57H131.11z"/>
<path class="st0" d="M140.84,275.03l-3.56-37.57h4.28c0.33,4.5,0.62,8.36,0.88,11.59c0.26,3.23,0.47,5.97,0.63,8.22
	c0.16,2.25,0.31,4.08,0.43,5.48c0.12,1.41,0.21,2.55,0.27,3.42c0.06,0.88,0.1,1.56,0.11,2.06c0.02,0.5,0.04,0.94,0.07,1.34h0.32
	c0-0.4,0.01-0.84,0.04-1.34c0.03-0.5,0.08-1.18,0.16-2.06c0.07-0.88,0.16-2.02,0.27-3.42c0.11-1.41,0.24-3.23,0.41-5.48
	c0.17-2.25,0.38-4.99,0.63-8.22c0.25-3.23,0.55-7.09,0.88-11.59h4.19l-3.69,37.57H140.84z"/>
<path class="st0" d="M155.07,275.03v-37.57h10.54v4.47h-6.57v11.81h6.48v4.27h-6.48v12.36h6.53v4.67H155.07z"/>
<path class="st0" d="M173.44,262.47c-0.06,0.36-0.1,0.78-0.11,1.24c-0.02,0.46-0.02,1.04-0.02,1.74c0,1.46,0.03,2.51,0.09,3.15
	c0.06,0.64,0.19,1.18,0.41,1.61c0.18,0.36,0.39,0.62,0.63,0.77c0.24,0.15,0.61,0.22,1.13,0.22c0.6,0,1.03-0.07,1.28-0.22
	c0.25-0.15,0.49-0.44,0.7-0.87c0.21-0.46,0.35-1.06,0.41-1.79c0.06-0.73,0.09-1.92,0.09-3.57c0-0.63,0-1.16,0-1.59
	c0-0.43-0.02-0.79-0.04-1.07c-0.03-0.28-0.06-0.53-0.09-0.74c-0.03-0.21-0.08-0.45-0.13-0.72c-0.12-0.46-0.28-0.81-0.47-1.04
	c-0.2-0.23-0.52-0.53-0.97-0.89c-0.36-0.3-0.76-0.6-1.22-0.92c-0.45-0.31-0.9-0.64-1.35-0.97s-0.89-0.67-1.31-1.02
	c-0.42-0.35-0.78-0.69-1.08-1.02c-0.3-0.33-0.56-0.7-0.77-1.12c-0.21-0.41-0.38-0.95-0.5-1.61c-0.12-0.66-0.21-1.51-0.27-2.53
	c-0.06-1.03-0.09-2.33-0.09-3.92c0-2.08,0.11-3.65,0.34-4.69c0.23-1.04,0.61-1.89,1.15-2.56c0.48-0.56,1.04-0.96,1.67-1.19
	c0.63-0.23,1.53-0.35,2.7-0.35c1.38,0,2.42,0.17,3.13,0.5c0.71,0.33,1.25,0.78,1.64,1.34c0.42,0.63,0.7,1.4,0.86,2.31
	c0.15,0.91,0.22,2.21,0.22,3.9c0,1.06-0.02,1.93-0.07,2.61c-0.05,0.68-0.11,1.23-0.2,1.66h-3.38c0.06-0.33,0.1-0.74,0.11-1.22
	c0.01-0.48,0.02-1.1,0.02-1.86c0-1.26-0.04-2.19-0.13-2.8s-0.26-1.1-0.5-1.46c-0.18-0.26-0.39-0.44-0.63-0.52
	c-0.24-0.08-0.6-0.12-1.08-0.12c-0.48,0-0.83,0.05-1.06,0.15c-0.23,0.1-0.43,0.3-0.61,0.6c-0.21,0.36-0.35,0.84-0.43,1.44
	c-0.07,0.6-0.11,1.56-0.11,2.88c0,0.76,0,1.38,0,1.86c0,0.48,0.01,0.88,0.02,1.19c0.02,0.32,0.04,0.58,0.09,0.79
	c0.04,0.22,0.1,0.44,0.16,0.67c0.15,0.43,0.3,0.75,0.45,0.97c0.15,0.21,0.47,0.52,0.95,0.92c0.54,0.46,1.19,0.93,1.96,1.39
	c0.77,0.46,1.49,0.98,2.18,1.54c0.54,0.43,0.94,0.79,1.19,1.07c0.26,0.28,0.5,0.69,0.74,1.22c0.12,0.3,0.23,0.6,0.32,0.89
	c0.09,0.3,0.16,0.69,0.2,1.19c0.04,0.5,0.07,1.13,0.09,1.91c0.02,0.78,0.02,1.78,0.02,3c0,1.29-0.03,2.39-0.09,3.3
	c-0.06,0.91-0.14,1.69-0.25,2.33c-0.11,0.64-0.23,1.19-0.38,1.64s-0.31,0.87-0.5,1.27c-0.36,0.76-0.93,1.34-1.71,1.74
	c-0.78,0.4-1.89,0.6-3.33,0.6c-1.23,0-2.2-0.15-2.9-0.45c-0.71-0.3-1.27-0.88-1.69-1.74c-0.18-0.36-0.35-0.75-0.5-1.14
	c-0.15-0.4-0.27-0.86-0.36-1.39c-0.09-0.53-0.16-1.16-0.2-1.89c-0.04-0.73-0.07-1.62-0.07-2.68c0-0.86,0.02-1.61,0.07-2.26
	c0.04-0.65,0.1-1.2,0.16-1.66H173.44z"/>
<path class="st0" d="M188.93,275.03v-33.11h-4.23v-4.47h12.43v4.47h-4.19v33.11H188.93z"/>
<path class="st0" d="M216.35,275.03v-24.42c0-0.89,0-1.78,0-2.66s0.01-1.65,0.04-2.31h-0.23c-0.03,0.23-0.07,0.51-0.11,0.82
	c-0.04,0.31-0.12,0.84-0.22,1.56c-0.11,0.73-0.26,1.72-0.47,2.98c-0.21,1.26-0.49,2.94-0.83,5.04c-0.35,2.1-0.77,4.7-1.26,7.79
	c-0.5,3.09-1.1,6.83-1.82,11.19h-1.89c-0.72-4.37-1.34-8.1-1.85-11.19c-0.51-3.09-0.94-5.69-1.28-7.79
	c-0.35-2.1-0.62-3.79-0.83-5.06c-0.21-1.27-0.37-2.27-0.47-2.98c-0.11-0.71-0.18-1.22-0.22-1.54c-0.04-0.31-0.08-0.59-0.11-0.82
	h-0.23c0.03,0.66,0.04,1.43,0.04,2.31s0,1.76,0,2.66v24.42h-3.56v-37.57h6.39c0.6,4.3,1.08,7.76,1.44,10.37
	c0.36,2.61,0.65,4.68,0.86,6.2c0.21,1.52,0.35,2.65,0.43,3.38c0.07,0.73,0.14,1.37,0.2,1.94h0.22c0.03-0.56,0.09-1.21,0.18-1.94
	c0.09-0.73,0.24-1.85,0.45-3.38c0.21-1.52,0.5-3.59,0.88-6.2c0.38-2.61,0.86-6.07,1.46-10.37h6.35v37.57H216.35z"/>
<path class="st0" d="M224.82,275.03v-37.57h10.54v4.47h-6.57v11.81h6.48v4.27h-6.48v12.36h6.53v4.67H224.82z"/>
<path class="st0" d="M250.84,275.03c-0.99-3.64-1.85-6.77-2.57-9.38c-0.72-2.61-1.33-4.83-1.82-6.65c-0.5-1.82-0.89-3.31-1.19-4.47
	c-0.3-1.16-0.55-2.1-0.74-2.83c-0.2-0.73-0.35-1.3-0.45-1.71c-0.11-0.41-0.19-0.79-0.25-1.12h-0.22c0.03,1.06,0.04,2.17,0.04,3.33
	c0,1.16,0,2.43,0,3.82v19.01h-3.65v-37.57h4.59c0.66,2.78,1.23,5.15,1.71,7.12c0.48,1.97,0.88,3.62,1.19,4.96s0.57,2.42,0.77,3.23
	c0.2,0.81,0.35,1.46,0.45,1.94s0.18,0.84,0.22,1.09c0.05,0.25,0.08,0.47,0.11,0.67h0.23c-0.03-0.63-0.04-1.27-0.04-1.94
	c0-0.66,0-1.56,0-2.68v-14.39h3.69v37.57H250.84z"/>
<path class="st0" d="M261.07,275.03v-33.11h-4.23v-4.47h12.43v4.47h-4.19v33.11H261.07z"/>
<path class="st0" d="M276.11,262.47c-0.06,0.36-0.1,0.78-0.11,1.24c-0.02,0.46-0.02,1.04-0.02,1.74c0,1.46,0.03,2.51,0.09,3.15
	c0.06,0.64,0.19,1.18,0.41,1.61c0.18,0.36,0.39,0.62,0.63,0.77c0.24,0.15,0.61,0.22,1.13,0.22c0.6,0,1.03-0.07,1.28-0.22
	c0.25-0.15,0.49-0.44,0.7-0.87c0.21-0.46,0.35-1.06,0.41-1.79c0.06-0.73,0.09-1.92,0.09-3.57c0-0.63,0-1.16,0-1.59
	c0-0.43-0.02-0.79-0.04-1.07c-0.03-0.28-0.06-0.53-0.09-0.74c-0.03-0.21-0.08-0.45-0.13-0.72c-0.12-0.46-0.28-0.81-0.47-1.04
	c-0.2-0.23-0.52-0.53-0.97-0.89c-0.36-0.3-0.76-0.6-1.22-0.92c-0.45-0.31-0.9-0.64-1.35-0.97c-0.45-0.33-0.89-0.67-1.31-1.02
	c-0.42-0.35-0.78-0.69-1.08-1.02c-0.3-0.33-0.56-0.7-0.77-1.12c-0.21-0.41-0.38-0.95-0.5-1.61c-0.12-0.66-0.21-1.51-0.27-2.53
	c-0.06-1.03-0.09-2.33-0.09-3.92c0-2.08,0.11-3.65,0.34-4.69c0.23-1.04,0.61-1.89,1.15-2.56c0.48-0.56,1.04-0.96,1.67-1.19
	c0.63-0.23,1.53-0.35,2.7-0.35c1.38,0,2.42,0.17,3.13,0.5s1.25,0.78,1.64,1.34c0.42,0.63,0.7,1.4,0.86,2.31
	c0.15,0.91,0.22,2.21,0.22,3.9c0,1.06-0.02,1.93-0.07,2.61c-0.05,0.68-0.11,1.23-0.2,1.66h-3.38c0.06-0.33,0.1-0.74,0.11-1.22
	c0.01-0.48,0.02-1.1,0.02-1.86c0-1.26-0.04-2.19-0.13-2.8c-0.09-0.61-0.26-1.1-0.5-1.46c-0.18-0.26-0.39-0.44-0.63-0.52
	c-0.24-0.08-0.6-0.12-1.08-0.12c-0.48,0-0.83,0.05-1.06,0.15c-0.23,0.1-0.43,0.3-0.61,0.6c-0.21,0.36-0.35,0.84-0.43,1.44
	c-0.07,0.6-0.11,1.56-0.11,2.88c0,0.76,0,1.38,0,1.86c0,0.48,0.01,0.88,0.02,1.19c0.02,0.32,0.04,0.58,0.09,0.79
	c0.04,0.22,0.1,0.44,0.16,0.67c0.15,0.43,0.3,0.75,0.45,0.97s0.47,0.52,0.95,0.92c0.54,0.46,1.19,0.93,1.96,1.39
	c0.77,0.46,1.49,0.98,2.18,1.54c0.54,0.43,0.94,0.79,1.19,1.07c0.26,0.28,0.5,0.69,0.74,1.22c0.12,0.3,0.23,0.6,0.32,0.89
	c0.09,0.3,0.16,0.69,0.2,1.19s0.07,1.13,0.09,1.91c0.02,0.78,0.02,1.78,0.02,3c0,1.29-0.03,2.39-0.09,3.3
	c-0.06,0.91-0.14,1.69-0.25,2.33c-0.11,0.64-0.23,1.19-0.38,1.64s-0.31,0.87-0.5,1.27c-0.36,0.76-0.93,1.34-1.71,1.74
	c-0.78,0.4-1.89,0.6-3.33,0.6c-1.23,0-2.2-0.15-2.9-0.45c-0.71-0.3-1.27-0.88-1.69-1.74c-0.18-0.36-0.35-0.75-0.5-1.14
	c-0.15-0.4-0.27-0.86-0.36-1.39c-0.09-0.53-0.16-1.16-0.2-1.89c-0.04-0.73-0.07-1.62-0.07-2.68c0-0.86,0.02-1.61,0.07-2.26
	c0.04-0.65,0.1-1.2,0.16-1.66H276.11z"/>
</svg>
